<svg width="86" height="30" viewBox="0 0 86 30" fill="none" xmlns="http://www.w3.org/2000/svg">
<path d="M2.4928 14.0859V21.5642M2.4928 21.5642C2.4928 21.5642 7.4783 23.8077 11.4667 21.5642M2.4928 21.5642V24.5555C2.4928 24.5555 7.72758 25.3033 11.4667 24.5555M11.4667 21.5642C11.4667 22.7323 11.4667 23.3873 11.4667 24.5555M11.4667 21.5642C14.3334 19.4454 17.4493 14.0859 17.4493 14.0859C17.4493 19.3207 15.9537 23.8076 11.4667 24.5555" stroke="url(#paint0_linear_98_1379)" stroke-width="1.49565"/>
<path d="M14.458 5.11209H2.4928V8.1034H11.4667L14.458 5.11209Z" stroke="url(#paint1_linear_98_1379)" stroke-width="1.49565"/>
<path d="M2.4928 8.10336V10.3468V12.5903V13.3381M2.4928 13.3381V15.5816H11.4667L9.22323 13.3381H2.4928Z" stroke="url(#paint2_linear_98_1379)" stroke-width="1.49565"/>
<path d="M26.52 22.764C25.4494 22.764 24.496 22.5293 23.66 22.06C22.8387 21.576 22.1934 20.9087 21.724 20.058C21.2547 19.2073 21.02 18.2173 21.02 17.088C21.02 15.944 21.2474 14.9393 21.702 14.074C22.1714 13.2087 22.8167 12.534 23.638 12.05C24.474 11.566 25.442 11.324 26.542 11.324C27.6127 11.324 28.544 11.566 29.336 12.05C30.128 12.5193 30.744 13.15 31.184 13.942C31.624 14.734 31.844 15.6067 31.844 16.56C31.844 16.7067 31.8367 16.868 31.822 17.044C31.822 17.2053 31.8147 17.3887 31.8 17.594H23.308C23.3814 18.65 23.726 19.4567 24.342 20.014C24.9727 20.5567 25.6987 20.828 26.52 20.828C27.18 20.828 27.73 20.6813 28.17 20.388C28.6247 20.08 28.962 19.6693 29.182 19.156H31.514C31.2207 20.1827 30.634 21.0407 29.754 21.73C28.8887 22.4193 27.8107 22.764 26.52 22.764ZM26.52 13.238C25.7427 13.238 25.0534 13.4727 24.452 13.942C23.8507 14.3967 23.484 15.086 23.352 16.01H29.512C29.468 15.1593 29.1674 14.4847 28.61 13.986C28.0527 13.4873 27.356 13.238 26.52 13.238ZM36.892 22.5L32.8 11.588H35.242L38.278 20.278L41.314 11.588H43.734L39.664 22.5H36.892ZM50.1958 22.764C49.1251 22.764 48.1718 22.5293 47.3358 22.06C46.5145 21.576 45.8691 20.9087 45.3998 20.058C44.9305 19.2073 44.6958 18.2173 44.6958 17.088C44.6958 15.944 44.9231 14.9393 45.3778 14.074C45.8471 13.2087 46.4925 12.534 47.3138 12.05C48.1498 11.566 49.1178 11.324 50.2178 11.324C51.2885 11.324 52.2198 11.566 53.0118 12.05C53.8038 12.5193 54.4198 13.15 54.8598 13.942C55.2998 14.734 55.5198 15.6067 55.5198 16.56C55.5198 16.7067 55.5125 16.868 55.4978 17.044C55.4978 17.2053 55.4905 17.3887 55.4758 17.594H46.9838C47.0571 18.65 47.4018 19.4567 48.0178 20.014C48.6485 20.5567 49.3745 20.828 50.1958 20.828C50.8558 20.828 51.4058 20.6813 51.8458 20.388C52.3005 20.08 52.6378 19.6693 52.8578 19.156H55.1898C54.8965 20.1827 54.3098 21.0407 53.4298 21.73C52.5645 22.4193 51.4865 22.764 50.1958 22.764ZM50.1958 13.238C49.4185 13.238 48.7291 13.4727 48.1278 13.942C47.5265 14.3967 47.1598 15.086 47.0278 16.01H53.1878C53.1438 15.1593 52.8431 14.4847 52.2858 13.986C51.7285 13.4873 51.0318 13.238 50.1958 13.238ZM62.2955 22.764C60.9168 22.764 59.7801 22.4267 58.8855 21.752C57.9908 21.0773 57.4775 20.1827 57.3455 19.068H59.6995C59.8168 19.5667 60.0955 19.9993 60.5355 20.366C60.9755 20.718 61.5548 20.894 62.2735 20.894C62.9775 20.894 63.4908 20.7473 63.8135 20.454C64.1361 20.1607 64.2975 19.8233 64.2975 19.442C64.2975 18.8847 64.0701 18.5107 63.6155 18.32C63.1755 18.1147 62.5595 17.9313 61.7675 17.77C61.1515 17.638 60.5355 17.462 59.9195 17.242C59.3181 17.022 58.8121 16.714 58.4015 16.318C58.0055 15.9073 57.8075 15.3573 57.8075 14.668C57.8075 13.7147 58.1741 12.9227 58.9075 12.292C59.6408 11.6467 60.6675 11.324 61.9875 11.324C63.2048 11.324 64.1875 11.6173 64.9355 12.204C65.6981 12.7907 66.1455 13.6193 66.2775 14.69H64.0335C63.9601 14.2207 63.7401 13.854 63.3735 13.59C63.0215 13.326 62.5448 13.194 61.9435 13.194C61.3568 13.194 60.9021 13.3187 60.5795 13.568C60.2568 13.8027 60.0955 14.1107 60.0955 14.492C60.0955 14.8733 60.3155 15.174 60.7555 15.394C61.2101 15.614 61.8041 15.812 62.5375 15.988C63.2708 16.1493 63.9455 16.34 64.5615 16.56C65.1921 16.7653 65.6981 17.0733 66.0795 17.484C66.4608 17.8947 66.6515 18.496 66.6515 19.288C66.6661 20.2853 66.2775 21.114 65.4855 21.774C64.7081 22.434 63.6448 22.764 62.2955 22.764ZM70.1213 22.632C69.6813 22.632 69.3146 22.4927 69.0213 22.214C68.7426 21.9207 68.6033 21.576 68.6033 21.18C68.6033 20.7693 68.7426 20.4247 69.0213 20.146C69.3146 19.8527 69.6813 19.706 70.1213 19.706C70.5613 19.706 70.9206 19.8527 71.1993 20.146C71.4779 20.4247 71.6173 20.7693 71.6173 21.18C71.6173 21.576 71.4779 21.9207 71.1993 22.214C70.9206 22.4927 70.5613 22.632 70.1213 22.632Z" fill="url(#paint3_linear_98_1379)"/>
<defs>
<linearGradient id="paint0_linear_98_1379" x1="2.4928" y1="24.5555" x2="18.1971" y2="12.5903" gradientUnits="userSpaceOnUse">
<stop offset="0.200695" stop-color="#190875"/>
<stop offset="1" stop-color="#A22525"/>
</linearGradient>
<linearGradient id="paint1_linear_98_1379" x1="1.74497" y1="7.35557" x2="15.9537" y2="4.36426" gradientUnits="userSpaceOnUse">
<stop stop-color="#190875"/>
<stop offset="1" stop-color="#A22525"/>
</linearGradient>
<linearGradient id="paint2_linear_98_1379" x1="2.4928" y1="13.3381" x2="12.9624" y2="16.3294" gradientUnits="userSpaceOnUse">
<stop stop-color="#190875"/>
<stop offset="1" stop-color="#A22525"/>
</linearGradient>
<linearGradient id="paint3_linear_98_1379" x1="28.442" y1="22.5" x2="64.942" y2="14.5" gradientUnits="userSpaceOnUse">
<stop stop-color="#190875"/>
<stop offset="1" stop-color="#A22525"/>
</linearGradient>
</defs>
</svg>
